<?xml version="1.0" encoding="UTF-8"?>
<!-- Generator: visioncortex VTracer 0.6.3 -->
<svg version="1.1" xmlns="http://www.w3.org/2000/svg" width="512" height="512">
<path d="M0 1 C8.07 2.16 14.74 6.55 21.5 11.33 C27.35 15.24 34.23 14.54 41 14 C44.88 12.89 47.82 10.83 51.09 8.54 C62.54 0.6 73.25 -1.49 87 0 C94.34 1.51 100.25 5.14 106.39 9.32 C114.02 14.24 120.02 14.92 129 14 C132.04 13.11 134.4 11.79 137 10 C147.48 2.81 156.76 -2.27 170 0 C172.41 1.47 172.41 1.47 174 4 C174.94 12.79 171.97 20.58 169.29 28.83 C168.79 30.38 168.3 31.94 167.8 33.49 C166.5 37.59 165.18 41.68 163.86 45.77 C162.56 49.82 161.26 53.88 159.97 57.94 C159.46 59.54 158.94 61.14 158.43 62.75 C157.67 65.13 156.91 67.51 156.15 69.89 C155.4 72.23 154.66 74.58 153.91 76.92 C153.66 77.68 153.42 78.44 153.17 79.23 C151.75 83.68 150.31 88.13 148.86 92.57 C147.97 95.28 147.1 97.99 146.23 100.71 C145.64 102.56 145.02 104.41 144.41 106.26 C144.06 107.36 143.71 108.46 143.35 109.59 C143.04 110.55 142.73 111.5 142.41 112.48 C141.92 115.47 142.34 116.52 144 119 C144.66 119.8 145.32 120.61 146 121.44 C149.65 126.11 150.12 129.08 149.41 134.98 C148.68 141.68 148.68 141.68 151.29 147.62 C154.85 150.63 158.95 152.75 163.06 154.91 C172.25 160.05 179.72 168.52 187 176 C188.66 177.67 190.33 179.34 192 181 C192.06 180.11 192.12 179.23 192.19 178.31 C195.04 158.95 208.94 140.74 224 129 C246.13 113.76 270.04 108.47 296.73 112.62 C306.51 114.57 315.39 119.11 324 124 C324.85 124.48 325.7 124.97 326.58 125.46 C345.45 137.19 358.81 156.45 364.44 177.81 C368.27 194.39 367.62 212.95 362 229 C361.65 230.04 361.3 231.07 360.94 232.14 C355.09 247.65 344.65 261.64 331 271 C331.99 271.01 332.98 271.02 333.99 271.03 C337.69 271.07 341.39 271.13 345.09 271.21 C346.68 271.24 348.28 271.26 349.87 271.27 C367.8 271.44 367.8 271.44 375.24 277.96 C375.78 278.62 376.32 279.27 376.88 279.94 C377.43 280.59 377.98 281.23 378.55 281.9 C383.03 288.4 382.67 295.37 382 303 C380.35 309.55 375.6 314.4 370 318 C367.25 318.69 367.25 318.69 365 319 C365.33 319.66 365.66 320.32 366 321 C366.1 323.33 366.13 325.67 366.12 328 C366.13 329.26 366.13 330.52 366.13 331.81 C366 335 366 335 365 337 C365.73 337.09 366.46 337.18 367.21 337.27 C373.24 338.84 377.73 344.07 381.06 349.12 C382.96 356.95 383.73 366.11 379.4 373.25 C375.39 378.26 371.51 382.11 365 383 C365.33 383.66 365.66 384.32 366 385 C366.1 387.33 366.13 389.67 366.12 392 C366.13 393.26 366.13 394.52 366.13 395.81 C366 399 366 399 365 401 C365.74 401.1 366.48 401.2 367.25 401.31 C372.96 402.74 377.5 407.61 380.5 412.56 C383.29 418.95 383.08 426.78 381.38 433.43 C379.06 438.73 374.83 442.9 370 446 C367.25 446.69 367.25 446.69 365 447 C365.33 447.66 365.66 448.32 366 449 C366.63 456.89 367.17 464.57 362 471 C357.2 476.04 352.81 479.71 345.65 480.25 C343.72 480.26 343.72 480.26 341.74 480.26 C341.02 480.26 340.3 480.27 339.55 480.27 C337.12 480.28 334.69 480.28 332.26 480.27 C330.5 480.28 328.74 480.28 326.98 480.29 C322.14 480.3 317.3 480.31 312.47 480.31 C307.25 480.31 302.04 480.32 296.82 480.33 C285.41 480.35 274.01 480.36 262.6 480.37 C255.48 480.37 248.36 480.38 241.23 480.38 C221.52 480.4 201.8 480.42 182.09 480.42 C180.19 480.42 180.19 480.42 178.26 480.42 C175.7 480.42 173.14 480.42 170.59 480.42 C168.68 480.43 168.68 480.43 166.74 480.43 C164.83 480.43 164.83 480.43 162.88 480.43 C142.28 480.43 121.67 480.46 101.07 480.49 C79.92 480.53 58.77 480.55 37.61 480.55 C25.74 480.55 13.86 480.56 1.98 480.59 C-8.13 480.61 -18.24 480.62 -28.36 480.61 C-33.52 480.6 -38.68 480.6 -43.84 480.62 C-48.56 480.64 -53.29 480.64 -58.01 480.62 C-59.72 480.62 -61.43 480.62 -63.13 480.64 C-73.38 480.72 -82.24 480.39 -90.13 473.01 C-95.96 466.93 -98.56 460.52 -98.44 452.06 C-98.43 451.36 -98.43 450.66 -98.42 449.93 C-98.25 444.38 -97.26 440.46 -94 436 C-93.46 435.13 -92.93 434.27 -92.38 433.38 C-88.11 429.11 -82.74 426.46 -77.45 423.65 C-76.66 423.23 -75.88 422.81 -75.06 422.38 C-74 421.83 -74 421.83 -72.91 421.27 C-69.93 419.29 -68.32 417.25 -67.43 413.77 C-66.95 410.66 -66.87 407.72 -66.87 404.57 C-66.86 403.27 -66.86 401.97 -66.86 400.64 C-66.86 399.2 -66.86 397.77 -66.86 396.34 C-66.86 394.82 -66.85 393.31 -66.85 391.79 C-66.84 388.53 -66.83 385.27 -66.83 382.01 C-66.83 376.83 -66.81 371.65 -66.79 366.48 C-66.78 364.7 -66.78 362.92 -66.77 361.15 C-66.77 360.26 -66.76 359.37 -66.76 358.45 C-66.72 346.4 -66.69 334.36 -66.67 322.31 C-66.67 314.18 -66.64 306.05 -66.6 297.92 C-66.59 293.62 -66.57 289.33 -66.58 285.04 C-66.61 250.03 -66.61 250.03 -62 234 C-61.77 233.2 -61.54 232.41 -61.31 231.59 C-54.82 209.42 -43.53 190.02 -28 173 C-27.14 172.05 -26.27 171.11 -25.38 170.13 C-14.68 158.94 -1.84 149.91 12 143 C12.66 143 13.32 143 14 143 C13.98 142.07 13.95 141.14 13.93 140.18 C13.91 138.95 13.89 137.71 13.88 136.44 C13.85 135.22 13.83 134 13.8 132.75 C14 129 14 129 15.11 125.69 C16.14 121.44 15.71 119.42 14.4 115.29 C14.2 114.66 14.01 114.02 13.81 113.37 C13.16 111.28 12.48 109.2 11.8 107.12 C11.34 105.64 10.88 104.16 10.41 102.68 C9.43 99.55 8.44 96.42 7.43 93.29 C5.87 88.44 4.34 83.57 2.81 78.7 C-1.15 66.13 -5.16 53.57 -9.22 41.02 C-10.1 38.31 -10.97 35.59 -11.84 32.87 C-12.83 29.81 -13.83 26.75 -14.85 23.7 C-17.04 17.03 -19 11.05 -18 4 C-14.02 -2.32 -6.58 -0.78 0 0 Z M60.91 22.46 C49.48 30.39 38.74 32.51 25 31 C17.36 29.38 11.22 25.61 5 21 C4.01 21.5 4.01 21.5 3 22 C3.39 23.23 3.77 24.47 4.17 25.74 C13.17 54.48 22.11 83.23 31 112 C37.6 112 44.2 112 51 112 C50.6 110.61 50.2 109.22 49.79 107.78 C48.31 102.61 46.85 97.43 45.39 92.25 C44.76 90.01 44.12 87.77 43.48 85.53 C42.56 82.31 41.65 79.09 40.75 75.87 C40.46 74.87 40.17 73.87 39.87 72.85 C37.41 63.98 37.41 63.98 39 59 C41.27 56.48 42.64 56.05 46 55.56 C49.75 56.11 50.6 57.13 53 60 C54.05 62.46 54.05 62.46 54.83 65.23 C55.28 66.79 55.28 66.79 55.74 68.38 C56.05 69.5 56.36 70.61 56.67 71.77 C57 72.91 57.33 74.06 57.66 75.25 C58.7 78.91 59.73 82.58 60.75 86.25 C61.45 88.74 62.16 91.22 62.86 93.71 C64.59 99.8 66.3 105.9 68 112 C74.6 112 81.2 112 88 112 C88.99 109.01 89.97 106.03 90.99 102.95 C91.95 100.06 92.91 97.17 93.87 94.28 C94.54 92.27 95.2 90.26 95.87 88.25 C96.82 85.36 97.78 82.47 98.74 79.58 C99.04 78.68 99.33 77.78 99.64 76.86 C99.92 76.02 100.2 75.18 100.49 74.31 C100.73 73.57 100.98 72.84 101.23 72.08 C103.37 66.31 103.37 66.31 106 65 C113.42 64.53 113.42 64.53 115.59 66.29 C117.6 68.73 117.55 70.97 117.45 74.04 C116.41 80.89 113.8 87.43 111.5 93.94 C110.71 96.21 109.93 98.48 109.15 100.76 C108.66 102.16 108.17 103.57 107.68 104.97 C106.42 108.4 106.42 108.4 106 112 C112.27 112 118.54 112 125 112 C127.77 103.24 130.53 94.47 133.29 85.71 C134.58 81.63 135.86 77.56 137.15 73.49 C142.66 56.06 148.15 38.63 153 21 C149.81 22.24 147.07 23.5 144.25 25.44 C133.79 31.96 121.78 32.79 109.78 30.34 C103.85 28.37 98.75 25.18 93.61 21.68 C82.55 14.54 71.52 15.05 60.91 22.46 Z M32 131 C30.58 133.84 30.69 135.85 31 139 C33.23 141.85 34.55 142.85 38 144 C40.78 144.11 43.54 144.16 46.32 144.16 C47.17 144.17 48.02 144.17 48.9 144.18 C51.71 144.19 54.52 144.2 57.33 144.2 C59.29 144.21 61.24 144.21 63.19 144.22 C67.29 144.23 71.39 144.24 75.49 144.24 C80.74 144.25 85.99 144.27 91.24 144.3 C95.28 144.32 99.32 144.32 103.36 144.32 C105.29 144.33 107.23 144.33 109.16 144.35 C111.87 144.36 114.58 144.36 117.29 144.36 C118.08 144.37 118.88 144.37 119.7 144.38 C124.52 144.35 127.82 143.66 132 141 C133.42 138.16 133.31 136.15 133 133 C130.77 130.15 129.45 129.15 126 128 C123.22 127.89 120.46 127.84 117.68 127.84 C116.83 127.83 115.98 127.83 115.1 127.82 C112.29 127.81 109.48 127.8 106.67 127.8 C104.71 127.79 102.76 127.79 100.81 127.78 C96.71 127.77 92.61 127.76 88.51 127.76 C83.26 127.75 78.01 127.73 72.76 127.7 C68.72 127.68 64.68 127.68 60.64 127.68 C58.71 127.67 56.77 127.67 54.84 127.65 C52.13 127.64 49.42 127.64 46.71 127.64 C45.92 127.63 45.12 127.63 44.3 127.62 C39.48 127.65 36.18 128.34 32 131 Z M226 151 C212.06 165.17 206.71 182.43 206.68 201.94 C206.93 221.61 214.82 237.43 228.19 251.56 C242.78 265.72 260.21 271.43 280.14 271.37 C297.82 271.06 312.81 264.75 326 253 C326.7 252.38 327.4 251.77 328.12 251.13 C340.69 239.34 348.53 222.9 349.37 205.65 C349.63 193.5 348.7 183.24 344 172 C343.62 171.06 343.23 170.12 342.84 169.15 C339.89 162.66 335.69 157.32 331 152 C330.32 151.23 329.64 150.45 328.94 149.65 C315.17 134.92 297.45 129.66 278 128 C257.67 128 240.21 136.98 226 151 Z M-5 175 C-6.42 176.17 -6.42 176.17 -7.87 177.37 C-33.56 199.6 -47 231.74 -49.59 265.06 C-50.39 277.15 -50.28 289.27 -50.27 301.38 C-50.27 306.19 -50.29 311 -50.3 315.81 C-50.35 329.47 -50.37 343.12 -50.38 356.78 C-50.38 364.37 -50.4 371.95 -50.44 379.54 C-50.46 384.31 -50.46 389.09 -50.45 393.86 C-50.45 396.83 -50.46 399.79 -50.48 402.76 C-50.49 404.78 -50.47 406.79 -50.46 408.81 C-50.54 417.48 -51.69 423.95 -57.25 430.75 C-62.06 434.68 -67.27 437.62 -72.75 440.5 C-76.41 442.55 -79 444.18 -81 448 C-81.6 451.14 -81.65 453.87 -81 457 C-77.91 461.27 -75.02 462.71 -70 464 C-66.66 464.28 -63.33 464.26 -59.98 464.24 C-58.97 464.24 -57.97 464.24 -56.93 464.25 C-53.56 464.25 -50.2 464.24 -46.83 464.23 C-44.41 464.23 -42 464.23 -39.58 464.23 C-34.39 464.23 -29.19 464.22 -23.99 464.21 C-16.48 464.2 -8.96 464.19 -1.45 464.19 C10.74 464.18 22.94 464.17 35.13 464.15 C46.97 464.13 58.81 464.12 70.65 464.11 C71.38 464.11 72.11 464.11 72.87 464.11 C76.53 464.11 80.19 464.1 83.86 464.1 C114.24 464.08 144.62 464.04 175 464 C174.98 462.97 174.96 461.94 174.95 460.88 C174.93 459.51 174.92 458.15 174.9 456.79 C174.89 456.11 174.88 455.43 174.86 454.73 C174.81 448.11 176.13 444.03 180.65 439.26 C184.07 436.13 186.53 434.79 191 433 C191 427.06 191 421.12 191 415 C188.36 413.68 185.72 412.36 183 411 C180.98 409.25 180.98 409.25 179.62 407.56 C179.16 407.01 178.7 406.45 178.23 405.88 C174 399.4 174.33 392.49 175 385 C176.63 378.79 180.69 374.46 186 371 C187.65 370.34 189.3 369.68 191 369 C191 363.06 191 357.12 191 351 C188.36 349.68 185.72 348.36 183 347 C180.98 345.25 180.98 345.25 179.62 343.56 C179.16 343.01 178.7 342.45 178.23 341.88 C174 335.4 174.33 328.49 175 321 C176.63 314.79 180.69 310.46 186 307 C187.65 306.29 189.31 305.62 191 305 C190.95 303.94 190.91 302.88 190.86 301.78 C190.39 286.56 190.39 286.56 195 281 C201.58 274.08 207.51 272.71 216.81 272.38 C217.7 272.34 218.58 272.3 219.49 272.26 C221.66 272.16 223.83 272.08 226 272 C223.19 269.14 220.38 266.44 217.25 263.94 C203.16 251.6 194.79 233.02 191.19 214.94 C188.66 204.56 180.79 195.88 174 188 C173.2 187.01 173.2 187.01 172.38 186 C165.42 177.51 156.61 171.25 147.6 165.11 C146.27 164.19 144.98 163.21 143.7 162.21 C136.57 157.24 128.18 159.05 120 160 C120.64 162.6 121.29 165.21 121.94 167.81 C122.12 168.55 122.3 169.29 122.49 170.05 C123.24 173.07 124.01 176.04 125 179 C125.2 181.16 125.2 181.16 125.25 183.5 C125.29 184.66 125.29 184.66 125.33 185.84 C125 188 125 188 123.73 189.76 C121.65 191.25 120.54 191.4 118 191.38 C116.98 191.39 116.98 191.39 115.94 191.4 C113.36 190.87 112.66 190.04 111 188 C109.94 185.3 109.94 185.3 108.99 182.09 C108.65 180.94 108.3 179.78 107.94 178.59 C107.59 177.39 107.24 176.18 106.88 174.94 C106.17 172.55 105.45 170.16 104.74 167.78 C104.43 166.72 104.12 165.66 103.8 164.57 C103.09 162.04 103.09 162.04 102 160 C88.14 160 74.28 160 60 160 C57.82 166.44 57.82 166.44 55.66 172.89 C55.39 173.7 55.11 174.5 54.82 175.33 C54.41 176.57 54.41 176.57 53.98 177.82 C52.94 180.12 51.94 181.41 50 183 C48.06 183.4 48.06 183.4 46 183.38 C45.32 183.38 44.64 183.39 43.94 183.4 C41.4 182.88 40.53 182.07 39 180 C37.57 173.27 40 166.37 42 160 C41.26 159.95 40.53 159.9 39.77 159.85 C38.79 159.78 37.82 159.7 36.81 159.62 C35.37 159.52 35.37 159.52 33.89 159.41 C30.98 159 28.72 158.1 26 157 C15.05 157 3.18 168.2 -5 175 Z M208 291 C206.58 293.84 206.69 295.85 207 299 C209.23 301.85 210.55 302.85 214 304 C215.93 304.1 217.86 304.13 219.79 304.14 C220.99 304.15 222.2 304.15 223.45 304.16 C224.78 304.16 226.12 304.16 227.46 304.16 C228.87 304.17 230.28 304.17 231.69 304.18 C235.52 304.19 239.35 304.2 243.18 304.2 C245.58 304.2 247.97 304.21 250.37 304.21 C257.86 304.23 265.35 304.24 272.84 304.24 C281.48 304.24 290.12 304.26 298.77 304.29 C305.45 304.31 312.13 304.32 318.82 304.32 C322.81 304.32 326.8 304.33 330.79 304.35 C334.54 304.36 338.3 304.37 342.05 304.36 C343.43 304.36 344.81 304.36 346.18 304.37 C348.07 304.38 349.95 304.38 351.83 304.37 C353.41 304.37 353.41 304.37 355.02 304.37 C358.55 303.93 360.96 302.82 364 301 C365.42 298.16 365.31 296.15 365 293 C362.77 290.15 361.45 289.15 358 288 C356.07 287.9 354.14 287.87 352.21 287.86 C351.01 287.85 349.8 287.85 348.55 287.84 C347.22 287.84 345.88 287.84 344.54 287.84 C343.13 287.83 341.72 287.83 340.31 287.82 C336.48 287.81 332.65 287.8 328.82 287.8 C326.42 287.8 324.03 287.79 321.63 287.79 C314.14 287.77 306.65 287.76 299.16 287.76 C290.52 287.76 281.88 287.74 273.23 287.71 C266.55 287.69 259.87 287.68 253.18 287.68 C249.19 287.68 245.2 287.67 241.21 287.65 C237.46 287.64 233.7 287.63 229.95 287.64 C228.57 287.64 227.19 287.64 225.82 287.63 C223.93 287.62 222.05 287.62 220.17 287.63 C218.59 287.63 218.59 287.63 216.98 287.63 C213.45 288.07 211.04 289.18 208 291 Z M192 323 C190.58 325.84 190.69 327.85 191 331 C193.23 333.85 194.55 334.85 198 336 C199.93 336.1 201.86 336.13 203.79 336.14 C204.99 336.15 206.2 336.15 207.45 336.16 C208.78 336.16 210.12 336.16 211.46 336.16 C212.87 336.17 214.28 336.17 215.69 336.18 C219.52 336.19 223.35 336.2 227.18 336.2 C229.58 336.2 231.97 336.21 234.37 336.21 C241.86 336.23 249.35 336.24 256.84 336.24 C265.48 336.24 274.12 336.26 282.77 336.29 C289.45 336.31 296.13 336.32 302.82 336.32 C306.81 336.32 310.8 336.33 314.79 336.35 C318.54 336.36 322.3 336.37 326.05 336.36 C327.43 336.36 328.81 336.36 330.18 336.37 C332.07 336.38 333.95 336.38 335.83 336.37 C337.41 336.37 337.41 336.37 339.02 336.37 C342.55 335.93 344.96 334.82 348 333 C349.42 330.16 349.31 328.15 349 325 C346.77 322.15 345.45 321.15 342 320 C340.07 319.9 338.14 319.87 336.21 319.86 C335.01 319.85 333.8 319.85 332.55 319.84 C331.22 319.84 329.88 319.84 328.54 319.84 C327.13 319.83 325.72 319.83 324.31 319.82 C320.48 319.81 316.65 319.8 312.82 319.8 C310.42 319.8 308.03 319.79 305.63 319.79 C298.14 319.77 290.65 319.76 283.16 319.76 C274.52 319.76 265.88 319.74 257.23 319.71 C250.55 319.69 243.87 319.68 237.18 319.68 C233.19 319.68 229.2 319.67 225.21 319.65 C221.46 319.64 217.7 319.63 213.95 319.64 C212.57 319.64 211.19 319.64 209.82 319.63 C207.93 319.62 206.05 319.62 204.17 319.63 C202.59 319.63 202.59 319.63 200.98 319.63 C197.45 320.07 195.04 321.18 192 323 Z M208 355 C206.58 357.84 206.69 359.85 207 363 C209.23 365.85 210.55 366.85 214 368 C215.93 368.1 217.86 368.13 219.79 368.14 C220.99 368.15 222.2 368.15 223.45 368.16 C224.78 368.16 226.12 368.16 227.46 368.16 C228.87 368.17 230.28 368.17 231.69 368.18 C235.52 368.19 239.35 368.2 243.18 368.2 C245.58 368.2 247.97 368.21 250.37 368.21 C257.86 368.23 265.35 368.24 272.84 368.24 C281.48 368.24 290.12 368.26 298.77 368.29 C305.45 368.31 312.13 368.32 318.82 368.32 C322.81 368.32 326.8 368.33 330.79 368.35 C334.54 368.36 338.3 368.37 342.05 368.36 C343.43 368.36 344.81 368.36 346.18 368.37 C348.07 368.38 349.95 368.38 351.83 368.37 C353.41 368.37 353.41 368.37 355.02 368.37 C358.55 367.93 360.96 366.82 364 365 C365.42 362.16 365.31 360.15 365 357 C362.77 354.15 361.45 353.15 358 352 C356.07 351.9 354.14 351.87 352.21 351.86 C351.01 351.85 349.8 351.85 348.55 351.84 C347.22 351.84 345.88 351.84 344.54 351.84 C343.13 351.83 341.72 351.83 340.31 351.82 C336.48 351.81 332.65 351.8 328.82 351.8 C326.42 351.8 324.03 351.79 321.63 351.79 C314.14 351.77 306.65 351.76 299.16 351.76 C290.52 351.76 281.88 351.74 273.23 351.71 C266.55 351.69 259.87 351.68 253.18 351.68 C249.19 351.68 245.2 351.67 241.21 351.65 C237.46 351.64 233.7 351.63 229.95 351.64 C228.57 351.64 227.19 351.64 225.82 351.63 C223.93 351.62 222.05 351.62 220.17 351.63 C218.59 351.63 218.59 351.63 216.98 351.63 C213.45 352.07 211.04 353.18 208 355 Z M192 387 C190.58 389.84 190.69 391.85 191 395 C193.23 397.85 194.55 398.85 198 400 C199.93 400.1 201.86 400.13 203.79 400.14 C204.99 400.15 206.2 400.15 207.45 400.16 C208.78 400.16 210.12 400.16 211.46 400.16 C212.87 400.17 214.28 400.17 215.69 400.18 C219.52 400.19 223.35 400.2 227.18 400.2 C229.58 400.2 231.97 400.21 234.37 400.21 C241.86 400.23 249.35 400.24 256.84 400.24 C265.48 400.24 274.12 400.26 282.77 400.29 C289.45 400.31 296.13 400.32 302.82 400.32 C306.81 400.32 310.8 400.33 314.79 400.35 C318.54 400.36 322.3 400.37 326.05 400.36 C327.43 400.36 328.81 400.36 330.18 400.37 C332.07 400.38 333.95 400.38 335.83 400.37 C337.41 400.37 337.41 400.37 339.02 400.37 C342.55 399.93 344.96 398.82 348 397 C349.42 394.16 349.31 392.15 349 389 C346.77 386.15 345.45 385.15 342 384 C340.07 383.9 338.14 383.87 336.21 383.86 C335.01 383.85 333.8 383.85 332.55 383.84 C331.22 383.84 329.88 383.84 328.54 383.84 C327.13 383.83 325.72 383.83 324.31 383.82 C320.48 383.81 316.65 383.8 312.82 383.8 C310.42 383.8 308.03 383.79 305.63 383.79 C298.14 383.77 290.65 383.76 283.16 383.76 C274.52 383.76 265.88 383.74 257.23 383.71 C250.55 383.69 243.87 383.68 237.18 383.68 C233.19 383.68 229.2 383.67 225.21 383.65 C221.46 383.64 217.7 383.63 213.95 383.64 C212.57 383.64 211.19 383.64 209.82 383.63 C207.93 383.62 206.05 383.62 204.17 383.63 C202.59 383.63 202.59 383.63 200.98 383.63 C197.45 384.07 195.04 385.18 192 387 Z M208 419 C206.58 421.84 206.69 423.85 207 427 C209.23 429.85 210.55 430.85 214 432 C215.93 432.1 217.86 432.13 219.79 432.14 C220.99 432.15 222.2 432.15 223.45 432.16 C224.78 432.16 226.12 432.16 227.46 432.16 C228.87 432.17 230.28 432.17 231.69 432.18 C235.52 432.19 239.35 432.2 243.18 432.2 C245.58 432.2 247.97 432.21 250.37 432.21 C257.86 432.23 265.35 432.24 272.84 432.24 C281.48 432.24 290.12 432.26 298.77 432.29 C305.45 432.31 312.13 432.32 318.82 432.32 C322.81 432.32 326.8 432.33 330.79 432.35 C334.54 432.36 338.3 432.37 342.05 432.36 C343.43 432.36 344.81 432.36 346.18 432.37 C348.07 432.38 349.95 432.38 351.83 432.37 C353.41 432.37 353.41 432.37 355.02 432.37 C358.55 431.93 360.96 430.82 364 429 C365.42 426.16 365.31 424.15 365 421 C362.77 418.15 361.45 417.15 358 416 C356.07 415.9 354.14 415.87 352.21 415.86 C351.01 415.85 349.8 415.85 348.55 415.84 C347.22 415.84 345.88 415.84 344.54 415.84 C343.13 415.83 341.72 415.83 340.31 415.82 C336.48 415.81 332.65 415.8 328.82 415.8 C326.42 415.8 324.03 415.79 321.63 415.79 C314.14 415.77 306.65 415.76 299.16 415.76 C290.52 415.76 281.88 415.74 273.23 415.71 C266.55 415.69 259.87 415.68 253.18 415.68 C249.19 415.68 245.2 415.67 241.21 415.65 C237.46 415.64 233.7 415.63 229.95 415.64 C228.57 415.64 227.19 415.64 225.82 415.63 C223.93 415.62 222.05 415.62 220.17 415.63 C218.59 415.63 218.59 415.63 216.98 415.63 C213.45 416.07 211.04 417.18 208 419 Z M192 451 C190.58 453.84 190.69 455.85 191 459 C193.23 461.85 194.55 462.85 198 464 C199.93 464.1 201.86 464.13 203.79 464.14 C204.99 464.15 206.2 464.15 207.45 464.16 C208.78 464.16 210.12 464.16 211.46 464.16 C212.87 464.17 214.28 464.17 215.69 464.18 C219.52 464.19 223.35 464.2 227.18 464.2 C229.58 464.2 231.97 464.21 234.37 464.21 C241.86 464.23 249.35 464.24 256.84 464.24 C265.48 464.24 274.12 464.26 282.77 464.29 C289.45 464.31 296.13 464.32 302.82 464.32 C306.81 464.32 310.8 464.33 314.79 464.35 C318.54 464.36 322.3 464.37 326.05 464.36 C327.43 464.36 328.81 464.36 330.18 464.37 C332.07 464.38 333.95 464.38 335.83 464.37 C337.41 464.37 337.41 464.37 339.02 464.37 C342.55 463.93 344.96 462.82 348 461 C349.42 458.16 349.31 456.15 349 453 C346.77 450.15 345.45 449.15 342 448 C340.07 447.9 338.14 447.87 336.21 447.86 C335.01 447.85 333.8 447.85 332.55 447.84 C331.22 447.84 329.88 447.84 328.54 447.84 C327.13 447.83 325.72 447.83 324.31 447.82 C320.48 447.81 316.65 447.8 312.82 447.8 C310.42 447.8 308.03 447.79 305.63 447.79 C298.14 447.77 290.65 447.76 283.16 447.76 C274.52 447.76 265.88 447.74 257.23 447.71 C250.55 447.69 243.87 447.68 237.18 447.68 C233.19 447.68 229.2 447.67 225.21 447.65 C221.46 447.64 217.7 447.63 213.95 447.64 C212.57 447.64 211.19 447.64 209.82 447.63 C207.93 447.62 206.05 447.62 204.17 447.63 C202.59 447.63 202.59 447.63 200.98 447.63 C197.45 448.07 195.04 449.18 192 451 Z " fill="#00A6F0" transform="translate(114,16)"/>
<path d="M0 0 C0.85 0.48 1.7 0.97 2.58 1.46 C21.43 13.16 34.78 32.43 40.44 53.75 C44.24 70.11 44 89.26 38 105 C37.42 106.59 37.42 106.59 36.83 108.21 C28.06 130.74 11.24 147.94 -10.81 157.75 C-12.86 158.53 -14.93 159.28 -17 160 C-18.12 160.39 -19.24 160.79 -20.39 161.19 C-42.14 167.73 -66.39 165.59 -86.46 155.13 C-108.57 143.08 -123.84 124.84 -131.44 100.88 C-136.39 83.77 -135.88 63.79 -130 47 C-129.65 45.96 -129.3 44.93 -128.94 43.86 C-120.14 20.51 -102.39 3.99 -79.99 -6.16 C-53.68 -17.3 -24.32 -13.93 0 0 Z M-98.12 26.75 C-112.33 41.35 -117.43 59.24 -117.44 79.11 C-117.27 88.15 -115.47 95.7 -112 104 C-111.62 104.94 -111.23 105.88 -110.84 106.85 C-107.89 113.34 -103.69 118.68 -99 124 C-98.32 124.77 -97.64 125.55 -96.94 126.35 C-83.83 140.37 -65.94 146.95 -47.07 147.96 C-27.58 148.36 -10.29 140.37 3.72 127.25 C17.93 113.24 25.17 96.64 25.31 76.62 C25.34 55.9 17.99 39.44 3.81 24.44 C-25.79 -4.17 -69.23 -0.79 -98.12 26.75 Z " fill="#00A6F0" transform="translate(238,268)"/>
<path d="M0 0 C0.66 -0.01 1.32 -0.02 2 -0.03 C4.97 0.76 6.15 2.07 8 4.5 C8.61 7.52 8.61 7.52 8.75 10.75 C8.81 11.83 8.86 12.91 8.92 14.02 C8.95 14.84 8.97 15.66 9 16.5 C9.71 16.73 10.43 16.96 11.16 17.2 C20.03 20.22 26.26 23.11 31 31.5 C32.45 35.84 32.51 39.96 32 44.5 C30.5 47.12 30.5 47.12 28 48.5 C24.03 49.27 21.08 49.23 17.69 46.94 C16 44.5 16 44.5 14.62 40.94 C12.62 36.69 11.3 36.19 7 34.5 C3.55 34.03 3.55 34.03 0 34.12 C-1.18 34.12 -2.35 34.11 -3.56 34.1 C-7.35 34.54 -9.78 35.48 -13 37.5 C-13.97 40.08 -13.97 40.08 -14 42.5 C-11.21 44.82 -9.13 45.94 -5.56 46.56 C-4.69 46.72 -3.81 46.88 -2.91 47.05 C-0.88 47.36 1.15 47.64 3.19 47.89 C14.59 49.34 22.36 52.65 29.75 61.62 C33.09 66.63 32.42 72.73 32 78.5 C29.34 86.21 23.03 90.86 16 94.5 C13.67 95.35 11.43 95.94 9 96.5 C8.96 97.73 8.96 97.73 8.92 98.98 C8.84 100.6 8.84 100.6 8.75 102.25 C8.7 103.32 8.66 104.38 8.61 105.48 C7.88 109.09 6.93 110.32 4 112.5 C2 113.03 2 113.03 0 113 C-0.66 113.01 -1.32 113.02 -2 113.03 C-4.97 112.24 -6.15 110.93 -8 108.5 C-8.61 105.48 -8.61 105.48 -8.75 102.25 C-8.81 101.17 -8.86 100.09 -8.92 98.98 C-8.95 98.16 -8.97 97.34 -9 96.5 C-9.71 96.27 -10.43 96.04 -11.16 95.8 C-20.03 92.78 -26.26 89.89 -31 81.5 C-32.45 77.16 -32.51 73.04 -32 68.5 C-30.5 65.88 -30.5 65.88 -28 64.5 C-24.03 63.73 -21.08 63.77 -17.69 66.06 C-16 68.5 -16 68.5 -14.62 72.06 C-12.62 76.31 -11.3 76.81 -7 78.5 C-3.55 78.97 -3.55 78.97 0 78.88 C1.18 78.88 2.35 78.89 3.56 78.9 C7.35 78.46 9.78 77.52 13 75.5 C13.97 72.92 13.97 72.92 14 70.5 C11.21 68.18 9.13 67.06 5.56 66.44 C4.69 66.28 3.81 66.12 2.91 65.95 C0.88 65.64 -1.15 65.36 -3.19 65.11 C-14.59 63.66 -22.36 60.35 -29.75 51.38 C-33.09 46.37 -32.42 40.27 -32 34.5 C-29.34 26.79 -23.03 22.14 -16 18.5 C-13.67 17.65 -11.43 17.06 -9 16.5 C-8.97 15.68 -8.95 14.86 -8.92 14.02 C-8.87 12.94 -8.81 11.86 -8.75 10.75 C-8.68 9.15 -8.68 9.15 -8.61 7.52 C-7.63 2.69 -5.05 -0.08 0 0 Z " fill="#FFD700" transform="translate(192,287.5)"/>
<path d="M0 0 C0.66 -0.01 1.32 -0.02 2 -0.03 C4.97 0.76 6.15 2.07 8 4.5 C8.61 7.52 8.61 7.52 8.75 10.75 C8.81 11.83 8.86 12.91 8.92 14.02 C8.95 14.84 8.97 15.66 9 16.5 C9.71 16.73 10.43 16.96 11.16 17.2 C20.03 20.22 26.26 23.11 31 31.5 C32.45 35.84 32.51 39.96 32 44.5 C30.5 47.12 30.5 47.12 28 48.5 C24.03 49.27 21.08 49.23 17.69 46.94 C16 44.5 16 44.5 14.62 40.94 C12.62 36.69 11.3 36.19 7 34.5 C3.55 34.03 3.55 34.03 0 34.12 C-1.18 34.12 -2.35 34.11 -3.56 34.1 C-7.35 34.54 -9.78 35.48 -13 37.5 C-13.97 40.08 -13.97 40.08 -14 42.5 C-11.21 44.82 -9.13 45.94 -5.56 46.56 C-4.69 46.72 -3.81 46.88 -2.91 47.05 C-0.88 47.36 1.15 47.64 3.19 47.89 C14.59 49.34 22.36 52.65 29.75 61.62 C33.09 66.63 32.42 72.73 32 78.5 C29.34 86.21 23.03 90.86 16 94.5 C13.67 95.35 11.43 95.94 9 96.5 C8.96 97.73 8.96 97.73 8.92 98.98 C8.84 100.6 8.84 100.6 8.75 102.25 C8.7 103.32 8.66 104.38 8.61 105.48 C7.88 109.09 6.93 110.32 4 112.5 C2 113.03 2 113.03 0 113 C-0.66 113.01 -1.32 113.02 -2 113.03 C-4.97 112.24 -6.15 110.93 -8 108.5 C-8.61 105.48 -8.61 105.48 -8.75 102.25 C-8.81 101.17 -8.86 100.09 -8.92 98.98 C-8.95 98.16 -8.97 97.34 -9 96.5 C-9.71 96.27 -10.43 96.04 -11.16 95.8 C-20.03 92.78 -26.26 89.89 -31 81.5 C-32.45 77.16 -32.51 73.04 -32 68.5 C-30.5 65.88 -30.5 65.88 -28 64.5 C-24.03 63.73 -21.08 63.77 -17.69 66.06 C-16 68.5 -16 68.5 -14.62 72.06 C-12.62 76.31 -11.3 76.81 -7 78.5 C-3.55 78.97 -3.55 78.97 0 78.88 C1.18 78.88 2.35 78.89 3.56 78.9 C7.35 78.46 9.78 77.52 13 75.5 C13.97 72.92 13.97 72.92 14 70.5 C11.21 68.18 9.13 67.06 5.56 66.44 C4.69 66.28 3.81 66.12 2.91 65.95 C0.88 65.64 -1.15 65.36 -3.19 65.11 C-14.59 63.66 -22.36 60.35 -29.75 51.38 C-33.09 46.37 -32.42 40.27 -32 34.5 C-29.34 26.79 -23.03 22.14 -16 18.5 C-13.67 17.65 -11.43 17.06 -9 16.5 C-8.97 15.68 -8.95 14.86 -8.92 14.02 C-8.87 12.94 -8.81 11.86 -8.75 10.75 C-8.68 9.15 -8.68 9.15 -8.61 7.52 C-7.63 2.69 -5.05 -0.08 0 0 Z " fill="#FFD700" transform="translate(392,159.5)"/>
</svg>
